<?xml version="1.0" encoding="UTF-8" standalone="no"?>
<!DOCTYPE svg PUBLIC "-//W3C//DTD SVG 1.1//EN"
 "http://www.w3.org/Graphics/SVG/1.1/DTD/svg11.dtd">
<!-- Generated by graphviz version 2.43.0 (0)
 -->
<!-- Title: G Pages: 1 -->
<svg width="371pt" height="513pt"
 viewBox="0.00 0.00 370.61 512.84" xmlns="http://www.w3.org/2000/svg" xmlns:xlink="http://www.w3.org/1999/xlink">
<g id="graph0" class="graph" transform="scale(1 1) rotate(0) translate(4 508.84)">
<title>G</title><style>.edge>path:hover{stroke-width:8}</style>
<polygon fill="white" stroke="transparent" points="-4,4 -4,-508.84 366.61,-508.84 366.61,4 -4,4"/>
<!-- amtools___main__ -->
<g id="node1" class="node">
<title>amtools___main__</title><style>.edge>path:hover{stroke-width:8}</style>
<ellipse fill="#ac4949" stroke="black" cx="105.51" cy="-21.21" rx="43.68" ry="21.43"/>
<text text-anchor="middle" x="105.51" y="-24.21" font-family="Helvetica,sans-Serif" font-size="10.00" fill="#ffffff">amtools.</text>
<text text-anchor="middle" x="105.51" y="-13.21" font-family="Helvetica,sans-Serif" font-size="10.00" fill="#ffffff">__main__</text>
</g>
<!-- amtools_app -->
<g id="node2" class="node">
<title>amtools_app</title><style>.edge>path:hover{stroke-width:8}</style>
<ellipse fill="#a13535" stroke="black" cx="105.51" cy="-168.43" rx="45.15" ry="18"/>
<text text-anchor="middle" x="105.51" y="-165.93" font-family="Helvetica,sans-Serif" font-size="10.00" fill="#ffffff">amtools.app</text>
</g>
<!-- amtools_entry -->
<g id="node5" class="node">
<title>amtools_entry</title><style>.edge>path:hover{stroke-width:8}</style>
<ellipse fill="#a83838" stroke="black" cx="105.51" cy="-96.43" rx="50.07" ry="18"/>
<text text-anchor="middle" x="105.51" y="-93.93" font-family="Helvetica,sans-Serif" font-size="10.00" fill="#ffffff">amtools.entry</text>
</g>
<!-- amtools_app&#45;&gt;amtools_entry -->
<g id="edge1" class="edge">
<title>amtools_app&#45;&gt;amtools_entry</title><style>.edge>path:hover{stroke-width:8}</style>
<path fill="none" stroke="black" d="M105.51,-150.12C105.51,-142.41 105.51,-133.14 105.51,-124.54"/>
<polygon fill="#a13535" stroke="black" points="109.01,-124.53 105.51,-114.53 102.01,-124.53 109.01,-124.53"/>
</g>
<!-- amtools_commands -->
<g id="node3" class="node">
<title>amtools_commands</title><style>.edge>path:hover{stroke-width:8}</style>
<ellipse fill="#c24747" stroke="black" cx="68.51" cy="-243.64" rx="50.41" ry="21.43"/>
<text text-anchor="middle" x="68.51" y="-246.64" font-family="Helvetica,sans-Serif" font-size="10.00" fill="#ffffff">amtools.</text>
<text text-anchor="middle" x="68.51" y="-235.64" font-family="Helvetica,sans-Serif" font-size="10.00" fill="#ffffff">commands</text>
</g>
<!-- amtools_commands&#45;&gt;amtools_app -->
<g id="edge2" class="edge">
<title>amtools_commands&#45;&gt;amtools_app</title><style>.edge>path:hover{stroke-width:8}</style>
<path fill="none" stroke="black" d="M78.62,-222.63C82.83,-214.3 87.78,-204.51 92.28,-195.62"/>
<polygon fill="#c24747" stroke="black" points="95.53,-196.93 96.92,-186.43 89.29,-193.78 95.53,-196.93"/>
</g>
<!-- amtools_commands_all -->
<g id="node4" class="node">
<title>amtools_commands_all</title><style>.edge>path:hover{stroke-width:8}</style>
<ellipse fill="#b83d3d" stroke="black" cx="226.51" cy="-329.84" rx="52.15" ry="28.98"/>
<text text-anchor="middle" x="226.51" y="-338.34" font-family="Helvetica,sans-Serif" font-size="10.00" fill="#ffffff">amtools.</text>
<text text-anchor="middle" x="226.51" y="-327.34" font-family="Helvetica,sans-Serif" font-size="10.00" fill="#ffffff">commands.</text>
<text text-anchor="middle" x="226.51" y="-316.34" font-family="Helvetica,sans-Serif" font-size="10.00" fill="#ffffff">all</text>
</g>
<!-- amtools_commands_all&#45;&gt;amtools_app -->
<g id="edge3" class="edge">
<title>amtools_commands_all&#45;&gt;amtools_app</title><style>.edge>path:hover{stroke-width:8}</style>
<path fill="none" stroke="black" d="M200.07,-304.65C183.47,-288.62 162.29,-266.57 146.51,-244.64"/>
</g>
<!-- amtools_entry&#45;&gt;amtools___main__ -->
<g id="edge4" class="edge">
<title>amtools_entry&#45;&gt;amtools___main__</title><style>.edge>path:hover{stroke-width:8}</style>
<path fill="none" stroke="black" d="M105.51,-78.08C105.51,-70.5 105.51,-61.39 105.51,-52.74"/>
<polygon fill="#a83838" stroke="black" points="109.01,-52.56 105.51,-42.56 102.01,-52.56 109.01,-52.56"/>
</g>
<!-- vcorelib -->
<g id="node6" class="node">
<title>vcorelib</title><style>.edge>path:hover{stroke-width:8}</style>
<ellipse fill="#2fdbdb" stroke="black" cx="217.51" cy="-486.84" rx="32.93" ry="18"/>
<text text-anchor="middle" x="217.51" y="-484.34" font-family="Helvetica,sans-Serif" font-size="10.00" fill="#000000">vcorelib</text>
</g>
<!-- vcorelib&#45;&gt;amtools_app -->
<g id="edge5" class="edge">
<title>vcorelib&#45;&gt;amtools_app</title><style>.edge>path:hover{stroke-width:8}</style>
<path fill="none" stroke="black" d="M146.51,-328.84C119.4,-303.04 168.37,-275.02 146.51,-244.64"/>
<path fill="none" stroke="black" d="M146.51,-242.64C135.87,-227.84 125.84,-210.02 118.36,-195.66"/>
<polygon fill="#2fdbdb" stroke="black" points="121.27,-193.68 113.61,-186.36 115.04,-196.86 121.27,-193.68"/>
</g>
<!-- vcorelib&#45;&gt;amtools_commands_all -->
<g id="edge6" class="edge">
<title>vcorelib&#45;&gt;amtools_commands_all</title><style>.edge>path:hover{stroke-width:8}</style>
<path fill="none" stroke="black" d="M226.51,-394.84C224.23,-386.7 223.3,-377.75 223.12,-369.19"/>
<polygon fill="#2fdbdb" stroke="black" points="226.62,-369.05 223.24,-359.01 219.62,-368.97 226.62,-369.05"/>
</g>
<!-- vcorelib&#45;&gt;amtools_entry -->
<g id="edge7" class="edge">
<title>vcorelib&#45;&gt;amtools_entry</title><style>.edge>path:hover{stroke-width:8}</style>
<path fill="none" stroke="black" d="M222.87,-468.92C227.83,-450.59 233.49,-420.63 226.51,-395.84"/>
<path fill="none" stroke="black" d="M226.51,-394.84C217.18,-364.77 188.47,-380.38 165.51,-358.84 154.55,-348.54 157.41,-341.21 146.51,-330.84"/>
<path fill="none" stroke="black" d="M146.51,-328.84C97.83,-282.51 45.6,-321.54 9.51,-264.85 -22.91,-213.92 37.87,-151.75 76.71,-119.38"/>
<polygon fill="#2fdbdb" stroke="black" points="79.08,-121.97 84.62,-112.94 74.66,-116.54 79.08,-121.97"/>
</g>
<!-- vcorelib_args -->
<g id="node7" class="node">
<title>vcorelib_args</title><style>.edge>path:hover{stroke-width:8}</style>
<ellipse fill="#47c2c2" stroke="black" cx="315.51" cy="-486.84" rx="47.19" ry="18"/>
<text text-anchor="middle" x="315.51" y="-484.34" font-family="Helvetica,sans-Serif" font-size="10.00" fill="#000000">vcorelib.args</text>
</g>
<!-- vcorelib_args&#45;&gt;amtools_app -->
<g id="edge8" class="edge">
<title>vcorelib_args&#45;&gt;amtools_app</title><style>.edge>path:hover{stroke-width:8}</style>
<path fill="none" stroke="black" d="M306.51,-394.84C291.72,-354.87 316.3,-332.27 287.51,-300.85 249.32,-259.17 213.66,-294.48 165.51,-264.85 155.01,-258.39 153.71,-254.65 146.51,-244.64"/>
</g>
<!-- vcorelib_args&#45;&gt;amtools_commands_all -->
<g id="edge9" class="edge">
<title>vcorelib_args&#45;&gt;amtools_commands_all</title><style>.edge>path:hover{stroke-width:8}</style>
<path fill="none" stroke="black" d="M315.56,-468.59C315.2,-450.22 313.44,-420.48 306.51,-395.84"/>
<path fill="none" stroke="black" d="M306.51,-394.84C300.53,-378.67 287.62,-365.58 273.88,-355.55"/>
<polygon fill="#47c2c2" stroke="black" points="275.51,-352.42 265.27,-349.69 271.57,-358.21 275.51,-352.42"/>
</g>
<!-- vcorelib_logging -->
<g id="node8" class="node">
<title>vcorelib_logging</title><style>.edge>path:hover{stroke-width:8}</style>
<ellipse fill="#3db8b8" stroke="black" cx="216.51" cy="-243.64" rx="41.94" ry="21.43"/>
<text text-anchor="middle" x="216.51" y="-246.64" font-family="Helvetica,sans-Serif" font-size="10.00" fill="#000000">vcorelib.</text>
<text text-anchor="middle" x="216.51" y="-235.64" font-family="Helvetica,sans-Serif" font-size="10.00" fill="#000000">logging</text>
</g>
<!-- vcorelib_logging&#45;&gt;amtools_entry -->
<g id="edge10" class="edge">
<title>vcorelib_logging&#45;&gt;amtools_entry</title><style>.edge>path:hover{stroke-width:8}</style>
<path fill="none" stroke="black" d="M206.21,-223.02C195.66,-203.71 178.19,-173.8 159.51,-150.43 151.12,-139.92 140.81,-129.35 131.45,-120.44"/>
<polygon fill="#3db8b8" stroke="black" points="133.58,-117.64 123.88,-113.38 128.81,-122.76 133.58,-117.64"/>
</g>
</g>
</svg>
